<mxfile host="app.diagrams.net" modified="2023-05-20T18:08:50.485Z" agent="Mozilla/5.0 (Macintosh; Intel Mac OS X 10_15_7) AppleWebKit/605.1.15 (KHTML, like Gecko) Version/16.4 Safari/605.1.15" version="21.3.2" etag="UX7-lyQW7nY0tqFtRyta" type="github">
  <diagram name="Сторінка-1" id="gtsopNSufAzIB_Svt0Ep">
    <mxGraphModel>
      <root>
        <mxCell id="0" />
        <mxCell id="1" parent="0" />
      </root>
    </mxGraphModel>
  </diagram>
</mxfile>
